<?xml version="1.0" encoding="UTF-8"?>
<svg id="Layer_1" data-name="Layer 1" xmlns="http://www.w3.org/2000/svg" viewBox="0 0 1024 1024">
  <defs>
    <style>
      .cls-1 {
        fill: #fff;
      }
    </style>
  </defs>
  <path class="cls-1" d="M274.88,429.04c-14.69-8.59-30.7-12.89-48.03-12.89s-33.34,4.3-48.03,12.89c-14.69,8.6-26.34,20.24-34.93,34.93-8.6,14.69-12.89,30.7-12.89,48.03s4.29,33.34,12.89,48.03c8.59,14.69,20.24,26.33,34.93,34.93,14.69,8.59,30.7,12.89,48.03,12.89s33.33-4.3,48.03-12.89c14.69-8.6,26.33-20.24,34.93-34.93,8.59-14.69,12.89-30.7,12.89-48.03s-4.3-33.33-12.89-48.03c-8.6-14.69-20.24-26.33-34.93-34.93ZM231.63,545.47c-9.84,0-17.92-2.94-24.22-8.84-4.18-3.9-6.96-8.58-8.37-14.03h100.72c-1.07,8.03-3.38,15.66-6.93,22.87h-61.19ZM199.06,501.81c1.42-5.36,4.19-10.01,8.34-13.93,6.31-5.96,14.38-8.94,24.22-8.94h61.4c3.5,7.22,5.76,14.84,6.78,22.87h-100.75ZM163.02,474.47c6.51-11.44,15.42-20.48,26.72-27.13,11.3-6.65,23.67-9.98,37.11-9.98s25.81,3.33,37.11,9.98c5.41,3.19,10.26,6.94,14.58,11.23h-46.7c-10.95,0-20.69,2.29-29.21,6.86-8.52,4.57-15.15,10.85-19.86,18.82-3.21,5.42-5.29,11.28-6.32,17.57h-22.57c1.24-9.71,4.28-18.82,9.13-27.34ZM263.96,576.66c-11.3,6.65-23.67,9.98-37.11,9.98s-25.82-3.33-37.11-9.98c-11.3-6.65-20.2-15.7-26.72-27.13-4.78-8.4-7.8-17.37-9.07-26.92h22.51c1.03,6.29,3.11,12.15,6.32,17.57,4.71,7.97,11.33,14.24,19.86,18.82,8.52,4.57,18.26,6.86,29.21,6.86h46.26c-4.21,4.11-8.9,7.73-14.14,10.81Z"/>
  <path class="cls-1" d="M477.64,542.28l-17.93-69.57c-1.25-4.71-3.67-8.49-7.28-11.33-3.61-2.84-7.9-4.26-12.89-4.26s-9.29,1.42-12.89,4.26c-3.61,2.84-5.96,6.62-7.07,11.33l-17.75,69.56-22.38-83.7h-26.61l27.24,92.11c3.33,11.51,10.32,17.26,21,17.26,5.68,0,10.19-1.56,13.51-4.68,3.33-3.12,5.68-7.31,7.07-12.58l17.87-70.02,17.69,70.02c2.91,11.51,9.91,17.26,21,17.26s17.46-5.75,20.79-17.26l27.24-92.11h-26.41l-22.2,83.71Z"/>
  <path class="cls-1" d="M616.79,463.24c-8.8-5.06-18.68-7.59-29.63-7.59s-20.83,2.53-29.63,7.59c-8.8,5.06-15.7,11.89-20.69,20.48-4.99,8.6-7.48,18.09-7.48,28.48s2.49,19.89,7.48,28.48c4.99,8.6,11.88,15.42,20.69,20.48,8.8,5.06,18.68,7.59,29.63,7.59s20.82-2.53,29.63-7.59c8.8-5.06,15.7-11.88,20.69-20.48,4.99-8.59,7.48-18.09,7.48-28.48s-2.49-19.89-7.48-28.48c-4.99-8.59-11.89-15.42-20.69-20.48ZM615.33,529.46c-2.7,5.13-6.48,9.22-11.33,12.27-4.85,3.05-10.47,4.57-16.84,4.57s-11.99-1.52-16.84-4.57c-4.85-3.05-8.63-7.14-11.33-12.27-2.7-5.13-4.05-10.88-4.05-17.26s1.35-12.13,4.05-17.26c2.7-5.13,6.48-9.22,11.33-12.27,4.85-3.05,10.46-4.57,16.84-4.57s11.99,1.53,16.84,4.57c4.85,3.05,8.63,7.14,11.33,12.27,2.7,5.13,4.05,10.88,4.05,17.26s-1.35,12.13-4.05,17.26Z"/>
  <path class="cls-1" d="M694.65,464.6c-4.84,3.55-8.37,8.31-10.6,14.26v-20.29h-25.16v107.28h25.37v-47.2c0-13.03,3.01-22.31,9.04-27.86,6.03-5.54,14.59-8.38,25.68-8.52h.83v-25.16h-.83c-9.43,0-17.54,2.5-24.33,7.48Z"/>
  <path class="cls-1" d="M763.16,540.8c-2.29-2.7-3.43-6.89-3.43-12.58v-110.82h-25.37v113.94c0,12.06,3.12,20.93,9.36,26.61,6.24,5.69,15.8,8.52,28.69,8.52h2.49v-21.42c-5.55-.14-9.46-1.56-11.75-4.26Z"/>
  <path class="cls-1" d="M867.63,417.4v54.38c-2.25-3.2-5.2-6.05-8.84-8.53-7.42-5.06-16.19-7.59-26.3-7.59-10.68,0-20.14,2.43-28.38,7.28-8.25,4.85-14.63,11.58-19.13,20.17-4.51,8.6-6.76,18.3-6.76,29.11s2.25,20.52,6.76,29.11c4.5,8.6,10.88,15.32,19.13,20.17,8.25,4.85,17.71,7.28,28.38,7.28,6.65,0,12.82-1.14,18.5-3.43,5.68-2.29,10.4-5.51,14.14-9.67.91-1.01,1.74-2.06,2.49-3.14v13.32h25.37v-148.45h-25.37ZM864.2,529.67c-2.7,5.27-6.52,9.43-11.44,12.47-4.92,3.05-10.64,4.57-17.15,4.57s-12.16-1.52-16.95-4.57c-4.78-3.05-8.46-7.21-11.02-12.47-2.57-5.27-3.85-11.09-3.85-17.46s1.28-12.2,3.85-17.46c2.56-5.27,6.24-9.42,11.02-12.47,4.78-3.05,10.43-4.57,16.95-4.57s12.23,1.53,17.15,4.57c4.92,3.05,8.73,7.21,11.44,12.47,2.7,5.27,4.05,11.09,4.05,17.46s-1.35,12.2-4.05,17.46Z"/>
</svg>